# xmcd
#
# Track frame offsets:
#	150
#	12655
#	34577
#	47582
#	60203
#	70665
#	86565
#	107566
#	129662
#	143246
#	155422
#	169590
#	188618
#	197768
#	209506
#	219223
#
# Disc length: 3075 seconds
#
# Revision: 1
# Processed by: cddbd v1.5.2PL0 Copyright (c) Steve Scherf et al.
# Submitted via: audiograbber 1.83.01
#
DISCID=d50c0110
DTITLE=Rhonda Vincent - Live at the Ryman
DYEAR=2018
DGENRE=Bluegrass
TTITLE0=Hit Parade of Love
TTITLE1=When the Grass Grows Over Me
TTITLE2=Grass That I'm Playing Is Really Blue
TTITLE3=How Can You Refuse Him Now
TTITLE4=Mama Tried (w Ronny Osborne)
TTITLE5=Midnight Angel (w The Osborne Brothers)
TTITLE6=My Favorite Memory - Beneath Still Waters - Windy City
TTITLE7=Deep Elem Blues (w Jesse Worryholds)
TTITLE8=Mom and Dad's Waltz (w Bobby Osborne)
TTITLE9=Pain In My Heart (w Bobby Osborne)
TTITLE10=Rocky Top (w Bobby Osborne)
TTITLE11=Wabash Cannonball - Homestead on the Farm (w Mac Wiseman)
TTITLE12=Jimmie Brown the Newsboy (w Mac Wiseman)
TTITLE13=Bluebirds Are Singing for Me (All)
TTITLE14='Tis Sweet to Be Remembered (w Mac Wiseman)
TTITLE15=Oswald's Dobro Chimes (w Brent Burke)
EXTD=
EXTT0=
EXTT1=
EXTT2=
EXTT3=
EXTT4=
EXTT5=
EXTT6=
EXTT7=
EXTT8=
EXTT9=
EXTT10=
EXTT11=
EXTT12=
EXTT13=
EXTT14=
EXTT15=
PLAYORDER=
